<?xml version="1.0" encoding="UTF-8"?> <svg version="1.1" viewBox="0 0 9 14" xmlns="http://www.w3.org/2000/svg" xmlns:xlink="http://www.w3.org/1999/xlink"><defs><path id="a" d="m7.5 11.727c-0.38627 0-0.6235-0.15457-0.93525-0.48711l-5.387-5.7461c-0.32035-0.34171-0.32035-0.89573 0-1.2374 0.32035-0.34171 0.83975-0.34171 1.1601 0l5.1621 5.5063 5.1621-5.5063c0.32035-0.34171 0.83975-0.34171 1.1601 0 0.32035 0.34171 0.32035 0.89573 0 1.2374 0 0-3.5785 3.8171-5.3678 5.7257-0.31814 0.33935-0.56815 0.50755-0.95442 0.50755z"/></defs><g fill="none" fill-rule="evenodd"><g transform="translate(-1283 -608)"><g transform="translate(40 595)"><g transform="translate(1247.5 20) scale(-1 1) translate(-7.5 -8)"><mask id="b" fill="white"><use xlink:href="#a"/></mask><g fill="#333" mask="url(#b)"><rect width="15" height="16"></rect></g></g></g></g></g></svg>