<?xml version="1.0" encoding="UTF-8"?> <svg version="1.1" viewBox="0 0 16 14" xmlns="http://www.w3.org/2000/svg" xmlns:xlink="http://www.w3.org/1999/xlink"><defs><path id="a" d="m0 3.3263c0-0.5484 0.44463-0.99297 1.0009-0.99297h13.998c0.55277 0 1.0009 0.44035 1.0009 0.99297v0.68073c0 0.5484-0.44463 0.99297-1.0009 0.99297h-13.998c-0.55277 0-1.0009-0.44035-1.0009-0.99297v-0.68073zm0 5.3333c0-0.5484 0.44463-0.99297 1.0009-0.99297h13.998c0.55277 0 1.0009 0.44035 1.0009 0.99297v0.68073c0 0.5484-0.44463 0.99297-1.0009 0.99297h-13.998c-0.55277 0-1.0009-0.44035-1.0009-0.99297v-0.68073zm0 5.3333c0-0.5484 0.44463-0.99297 1.0009-0.99297h13.998c0.55277 0 1.0009 0.44035 1.0009 0.99297v0.68073c0 0.5484-0.44463 0.99297-1.0009 0.99297h-13.998c-0.55277 0-1.0009-0.44035-1.0009-0.99297v-0.68073z"/></defs><g fill="none" fill-rule="evenodd"><g transform="translate(-339 -70)"><g transform="translate(339 68)"><mask fill="white"><use xlink:href="#a"/></mask><use fill="#333333" xlink:href="#a"/></g></g></g></svg>